<svg width="815" height="584" viewBox="0 0 815 584" fill="none" xmlns="http://www.w3.org/2000/svg">
<path d="M371.333 33.9999V67.9999H324H276.667V90.6665V113.333H292.533C316.267 113.333 323.867 116.933 330.267 131.2C333.2 137.733 333.333 139.333 333.733 182.533L334.267 227.2L356.133 248.533C368.133 260.4 378 270.4 378 270.933C378 271.6 357.733 272 333.067 272C297.867 272 286.133 271.467 279.6 270C260.267 265.467 246.933 255.333 239.467 239.6C231.6 223.2 231.2 218.267 230.133 141.333C228.933 63.4665 228.933 62.6665 219.6 45.8665C207.867 24.9332 187.467 11.1999 158.667 5.19987C142.667 1.73321 109.467 0.533205 91.3333 2.53321C69.6 5.06654 59.7333 7.73321 45.2 14.9332C28.2667 23.1999 18 33.0665 10.1333 48.5332C2 64.3999 0.533333 73.3332 0.266667 107.467L0 136.667L24.2667 137.067L48.4 137.333L48.9333 109.733C49.3333 78.2665 50.4 74.7999 59.7333 70.1332C65.8667 67.1999 75.0667 68.1332 78.6667 71.9999C84.2667 78.1332 84.5333 81.9999 84.6667 145.6C84.6667 192.8 85.0667 208.667 86.5333 216.4C93.0667 250.4 112.267 271.867 151.2 288.8L161.2 293.2L154.667 296.133C128.267 307.333 112.533 317.467 99.6 331.333C88.9333 342.933 81.6 354.667 77.6 367.333C73.7333 379.867 73.3333 411.867 77.2 425.333C86.6667 459.867 115.6 486.667 157.2 499.867C177.2 506.267 207.6 511.867 227.067 512.8C236.4 513.2 246.4 513.733 249.333 513.867C252.267 514.133 280.933 514.4 313.067 514.533L371.333 514.667V548V581.333H405.333H439.333V548V514.667H488H536.667V491.467V468.267L517.467 467.733C498.267 467.333 498.267 467.333 493.067 463.2C480.667 453.2 479.333 446.8 479.333 397.2V360.667L454.667 336C441.067 322.4 430 310.8 430 310.267C430 309.6 452.4 309.333 479.733 309.6C532.533 310.267 537.067 310.8 550.267 317.467C559.067 322 568.533 331.733 573.467 341.6C582 358.4 582.267 362.133 583.333 442C584.133 503.867 584.533 515.067 586.533 521.867C599.2 566 638.4 586.133 706.4 583.6C717.6 583.2 731.733 581.867 738 580.667C769.467 574.667 792.267 559.333 803.467 536.667C811.067 521.2 812.667 511.867 813.6 477.6L814.4 448H789.467H764.667V472.933C764.667 500.267 763.733 506 758.133 512.267C755.2 515.6 753.2 516.4 747.867 516.933C739.867 517.6 735.733 515.6 732.133 509.333C729.467 504.8 729.333 502.267 728.667 434.667L727.867 364.667L724.267 354C719.733 340.533 714.667 331.733 705.867 322.133C695.2 310.4 675.067 297.2 660.533 292.133C656.933 290.933 654 289.467 654 288.8C653.867 288.133 659.867 284.933 667.333 281.733C684.533 274.533 700.267 264.267 711.067 253.333C731.067 233.467 739.333 213.6 739.333 185.867C739.333 163.067 734.533 145.867 723.467 129.067C703.067 98.1332 668.533 80.7999 606.4 70.5332C600.8 69.5999 566.8 68.6665 518.667 68.1332L440 67.3332L439.6 33.5999L439.333 -0.000128104H405.333H371.333V33.9999ZM539.6 116.8C570.667 122.933 586.667 139.6 592.133 171.333C597.333 201.733 590.933 230.533 576.133 244.533C561.733 258 543.2 262.667 503.6 262.667H479.2L479.6 200.267C480.133 133.733 480.133 133.467 487.067 124.133C492.4 117.067 499.067 114.667 514.933 114.667C522.533 114.667 533.6 115.6 539.6 116.8ZM334 377.6C334 442.667 333.467 448.267 326.4 457.067C319.733 465.333 314.267 467.333 297.333 467.2C252.8 467.2 227.867 448.933 221.333 411.467C218.933 397.067 218.8 384 221.2 370.4C226.667 339.733 243.6 325.6 282 319.6C283.867 319.2 296.267 318.933 309.733 318.8L334 318.667V377.6Z" fill="#09764D"/>
</svg>
